<svg width="210" height="310" viewBox="0 0 210 310" fill="none" xmlns="http://www.w3.org/2000/svg">
<mask id="mask0_928_34" style="mask-type:alpha" maskUnits="userSpaceOnUse" x="0" y="0" width="310" height="310">
<circle cx="155" cy="155" r="155" fill="white" fill-opacity="0.5"/>
</mask>
<g mask="url(#mask0_928_34)">
<path d="M310 155C310 180.49 303.714 205.586 291.698 228.066C279.682 250.547 262.307 269.716 241.113 283.878C219.919 298.039 195.56 306.755 170.193 309.254C144.826 311.752 119.234 307.956 95.6841 298.201C72.1345 288.447 51.354 273.035 35.1834 253.331C19.0128 233.627 7.95112 210.239 2.97828 185.239C-1.99455 160.239 -0.725081 134.398 6.67425 110.006C14.0736 85.6136 27.3744 63.4225 45.3984 45.3985L155 155H310Z" fill="white"/>
<circle cx="79" cy="288" r="155" fill="url(#paint0_radial_928_34)"/>
<circle cx="-112" cy="95" r="155" fill="url(#paint1_radial_928_34)"/>
</g>
<defs>
<radialGradient id="paint0_radial_928_34" cx="0" cy="0" r="1" gradientUnits="userSpaceOnUse" gradientTransform="translate(79 288) rotate(90) scale(155)">
<stop stop-color="#B38850"/>
<stop offset="1" stop-color="white" stop-opacity="0"/>
</radialGradient>
<radialGradient id="paint1_radial_928_34" cx="0" cy="0" r="1" gradientUnits="userSpaceOnUse" gradientTransform="translate(-112 95) rotate(90) scale(155)">
<stop stop-color="#B38850"/>
<stop offset="1" stop-color="white" stop-opacity="0"/>
</radialGradient>
</defs>
</svg>
